# xmcd CD database file
#
# Track frame offsets:
#	150
#	14656
#	49208
#	68857
#	87395
#	109773
#	141711
#	164280
#	194382
#	216516
#	234609
#	265255
#	284509
#	303390
#
# Disc length: 4279 seconds
#
# Revision: 0
# Processed by: cddbd v1.5.2PL0 Copyright (c) Steve Scherf et al.
# Submitted via: CDex 2.15
#
DISCID=e010b50e
DTITLE=Gary Moore - Ballads And Blues 1982-1994
DYEAR=1994
DGENRE=Blues
TTITLE0=Always Gonna Love You
TTITLE1=Still Got The Blues
TTITLE2=Empty Rooms
TTITLE3=Parisienne Walkways
TTITLE4=One Day
TTITLE5=Separate Ways
TTITLE6=Story Of The Blues
TTITLE7=Crying In The Shadows
TTITLE8=With Love (Remember)
TTITLE9=Midnight Blues
TTITLE10=Falling In Love With You (Single Version)
TTITLE11=Jumpin' At Shadows
TTITLE12=Blues For Narada (Instrumental)
TTITLE13=Johnny Boy
EXTD=YEAR: 1994
EXTT0=
EXTT1=
EXTT2=
EXTT3=
EXTT4=
EXTT5=
EXTT6=
EXTT7=
EXTT8=
EXTT9=
EXTT10=
EXTT11=
EXTT12=
EXTT13=
PLAYORDER=
